<mxfile host="app.diagrams.net" modified="2024-07-17T13:12:01.846Z" agent="Mozilla/5.0 (Macintosh; Intel Mac OS X 10_15_7) AppleWebKit/537.36 (KHTML, like Gecko) Chrome/126.0.0.0 Safari/537.36" etag="gR6Hj76f2uB5NOsJNUpR" version="24.7.0" type="google">
  <diagram name="Pagina-1" id="-6r_j8z59QrGFmpx3U5O">
    <mxGraphModel grid="1" page="1" gridSize="10" guides="1" tooltips="1" connect="1" arrows="1" fold="1" pageScale="1" pageWidth="827" pageHeight="1169" math="0" shadow="0">
      <root>
        <mxCell id="0" />
        <mxCell id="1" parent="0" />
        <mxCell id="BoUPsW9iaZvLzsnQoqL9-16" value="" style="rounded=1;whiteSpace=wrap;html=1;absoluteArcSize=1;arcSize=14;strokeWidth=2;fillColor=none;" vertex="1" parent="1">
          <mxGeometry x="240" y="390" width="540" height="320" as="geometry" />
        </mxCell>
        <mxCell id="BoUPsW9iaZvLzsnQoqL9-1" value="User" style="shape=umlActor;verticalLabelPosition=bottom;verticalAlign=top;html=1;outlineConnect=0;fillColor=#dae8fc;strokeColor=#6c8ebf;" vertex="1" parent="1">
          <mxGeometry x="199" y="150" width="30" height="60" as="geometry" />
        </mxCell>
        <mxCell id="BoUPsW9iaZvLzsnQoqL9-2" value="Admin" style="shape=umlActor;verticalLabelPosition=bottom;verticalAlign=top;html=1;outlineConnect=0;fillColor=#dae8fc;strokeColor=#6c8ebf;" vertex="1" parent="1">
          <mxGeometry x="399" y="150" width="30" height="60" as="geometry" />
        </mxCell>
        <mxCell id="BoUPsW9iaZvLzsnQoqL9-3" value="Sistema" style="html=1;whiteSpace=wrap;fillColor=#fff2cc;strokeColor=#d6b656;" vertex="1" parent="1">
          <mxGeometry x="519" y="160" width="110" height="50" as="geometry" />
        </mxCell>
        <mxCell id="BoUPsW9iaZvLzsnQoqL9-4" value="" style="endArrow=classic;html=1;rounded=0;" edge="1" parent="1">
          <mxGeometry width="50" height="50" relative="1" as="geometry">
            <mxPoint x="379" y="190" as="sourcePoint" />
            <mxPoint x="249" y="190" as="targetPoint" />
          </mxGeometry>
        </mxCell>
        <mxCell id="BoUPsW9iaZvLzsnQoqL9-5" value="Actors" style="shape=umlFrame;whiteSpace=wrap;html=1;pointerEvents=0;" vertex="1" parent="1">
          <mxGeometry x="80" y="75" width="680" height="245" as="geometry" />
        </mxCell>
        <mxCell id="BoUPsW9iaZvLzsnQoqL9-6" value="User" style="shape=umlActor;verticalLabelPosition=bottom;verticalAlign=top;html=1;outlineConnect=0;fillColor=#dae8fc;strokeColor=#6c8ebf;" vertex="1" parent="1">
          <mxGeometry x="140" y="425" width="30" height="60" as="geometry" />
        </mxCell>
        <mxCell id="BoUPsW9iaZvLzsnQoqL9-7" value="Admin" style="shape=umlActor;verticalLabelPosition=bottom;verticalAlign=top;html=1;outlineConnect=0;fillColor=#dae8fc;strokeColor=#6c8ebf;" vertex="1" parent="1">
          <mxGeometry x="140" y="570" width="30" height="60" as="geometry" />
        </mxCell>
        <mxCell id="BoUPsW9iaZvLzsnQoqL9-9" value="" style="endArrow=classic;html=1;rounded=0;" edge="1" parent="1">
          <mxGeometry width="50" height="50" relative="1" as="geometry">
            <mxPoint x="155" y="560" as="sourcePoint" />
            <mxPoint x="154.5" y="510" as="targetPoint" />
          </mxGeometry>
        </mxCell>
        <mxCell id="BoUPsW9iaZvLzsnQoqL9-10" value="&lt;font style=&quot;font-size: 11px;&quot;&gt;Users Management&lt;/font&gt;" style="shape=umlFrame;whiteSpace=wrap;html=1;pointerEvents=0;width=110;height=50;" vertex="1" parent="1">
          <mxGeometry x="80" y="360" width="970" height="390" as="geometry" />
        </mxCell>
        <mxCell id="BoUPsW9iaZvLzsnQoqL9-13" value="Login" style="strokeWidth=2;html=1;shape=mxgraph.flowchart.start_1;whiteSpace=wrap;fillColor=#d5e8d4;strokeColor=#82b366;" vertex="1" parent="1">
          <mxGeometry x="440" y="410" width="126" height="70" as="geometry" />
        </mxCell>
        <mxCell id="BoUPsW9iaZvLzsnQoqL9-14" value="GetRemainingTokens" style="strokeWidth=2;html=1;shape=mxgraph.flowchart.start_1;whiteSpace=wrap;fillColor=#d5e8d4;strokeColor=#82b366;" vertex="1" parent="1">
          <mxGeometry x="330" y="510" width="136" height="70" as="geometry" />
        </mxCell>
        <mxCell id="BoUPsW9iaZvLzsnQoqL9-15" value="Refill Tokens" style="strokeWidth=2;html=1;shape=mxgraph.flowchart.start_1;whiteSpace=wrap;fillColor=#d5e8d4;strokeColor=#82b366;" vertex="1" parent="1">
          <mxGeometry x="452" y="600" width="126" height="70" as="geometry" />
        </mxCell>
        <mxCell id="BoUPsW9iaZvLzsnQoqL9-17" value="" style="endArrow=classic;html=1;rounded=0;entryX=0;entryY=0.5;entryDx=0;entryDy=0;entryPerimeter=0;" edge="1" parent="1" target="BoUPsW9iaZvLzsnQoqL9-13">
          <mxGeometry width="50" height="50" relative="1" as="geometry">
            <mxPoint x="170" y="460" as="sourcePoint" />
            <mxPoint x="220" y="410" as="targetPoint" />
          </mxGeometry>
        </mxCell>
        <mxCell id="BoUPsW9iaZvLzsnQoqL9-18" value="" style="endArrow=classic;html=1;rounded=0;entryX=0;entryY=0.5;entryDx=0;entryDy=0;entryPerimeter=0;" edge="1" parent="1" source="BoUPsW9iaZvLzsnQoqL9-6" target="BoUPsW9iaZvLzsnQoqL9-14">
          <mxGeometry width="50" height="50" relative="1" as="geometry">
            <mxPoint x="190" y="485" as="sourcePoint" />
            <mxPoint x="240" y="435" as="targetPoint" />
          </mxGeometry>
        </mxCell>
        <mxCell id="BoUPsW9iaZvLzsnQoqL9-19" value="" style="endArrow=classic;html=1;rounded=0;entryX=0;entryY=0.5;entryDx=0;entryDy=0;entryPerimeter=0;" edge="1" parent="1" target="BoUPsW9iaZvLzsnQoqL9-15">
          <mxGeometry width="50" height="50" relative="1" as="geometry">
            <mxPoint x="180" y="620" as="sourcePoint" />
            <mxPoint x="230" y="570" as="targetPoint" />
          </mxGeometry>
        </mxCell>
        <mxCell id="BoUPsW9iaZvLzsnQoqL9-22" value="" style="rounded=1;whiteSpace=wrap;html=1;absoluteArcSize=1;arcSize=14;strokeWidth=2;fillColor=none;" vertex="1" parent="1">
          <mxGeometry x="210" y="840" width="670" height="590" as="geometry" />
        </mxCell>
        <mxCell id="BoUPsW9iaZvLzsnQoqL9-23" value="User" style="shape=umlActor;verticalLabelPosition=bottom;verticalAlign=top;html=1;outlineConnect=0;fillColor=#dae8fc;strokeColor=#6c8ebf;" vertex="1" parent="1">
          <mxGeometry x="130" y="1055" width="30" height="60" as="geometry" />
        </mxCell>
        <mxCell id="BoUPsW9iaZvLzsnQoqL9-26" value="&lt;font style=&quot;font-size: 11px;&quot;&gt;Datasets Management&lt;/font&gt;" style="shape=umlFrame;whiteSpace=wrap;html=1;pointerEvents=0;width=110;height=50;" vertex="1" parent="1">
          <mxGeometry x="80" y="800" width="1010" height="690" as="geometry" />
        </mxCell>
        <mxCell id="BoUPsW9iaZvLzsnQoqL9-27" value="CancelDataset" style="strokeWidth=2;html=1;shape=mxgraph.flowchart.start_1;whiteSpace=wrap;fillColor=#d5e8d4;strokeColor=#82b366;" vertex="1" parent="1">
          <mxGeometry x="412" y="870" width="126" height="70" as="geometry" />
        </mxCell>
        <mxCell id="BoUPsW9iaZvLzsnQoqL9-28" value="CreateEmptyDataset" style="strokeWidth=2;html=1;shape=mxgraph.flowchart.start_1;whiteSpace=wrap;fillColor=#d5e8d4;strokeColor=#82b366;" vertex="1" parent="1">
          <mxGeometry x="250" y="860" width="136" height="70" as="geometry" />
        </mxCell>
        <mxCell id="BoUPsW9iaZvLzsnQoqL9-29" value="UpdateDataset" style="strokeWidth=2;html=1;shape=mxgraph.flowchart.start_1;whiteSpace=wrap;fillColor=#d5e8d4;strokeColor=#82b366;" vertex="1" parent="1">
          <mxGeometry x="590" y="880" width="126" height="70" as="geometry" />
        </mxCell>
        <mxCell id="BoUPsW9iaZvLzsnQoqL9-33" value="Sistema" style="html=1;whiteSpace=wrap;fillColor=#fff2cc;strokeColor=#d6b656;" vertex="1" parent="1">
          <mxGeometry x="930" y="1055" width="110" height="50" as="geometry" />
        </mxCell>
        <mxCell id="BoUPsW9iaZvLzsnQoqL9-34" value="StartInference" style="strokeWidth=2;html=1;shape=mxgraph.flowchart.start_1;whiteSpace=wrap;fillColor=#d5e8d4;strokeColor=#82b366;" vertex="1" parent="1">
          <mxGeometry x="449" y="985" width="126" height="70" as="geometry" />
        </mxCell>
        <mxCell id="BoUPsW9iaZvLzsnQoqL9-35" value="GetAllDatasets" style="strokeWidth=2;html=1;shape=mxgraph.flowchart.start_1;whiteSpace=wrap;fillColor=#d5e8d4;strokeColor=#82b366;" vertex="1" parent="1">
          <mxGeometry x="303" y="1340" width="126" height="70" as="geometry" />
        </mxCell>
        <mxCell id="BoUPsW9iaZvLzsnQoqL9-36" value="GetInferenceStatus" style="strokeWidth=2;html=1;shape=mxgraph.flowchart.start_1;whiteSpace=wrap;fillColor=#d5e8d4;strokeColor=#82b366;" vertex="1" parent="1">
          <mxGeometry x="490" y="1300" width="126" height="70" as="geometry" />
        </mxCell>
        <mxCell id="BoUPsW9iaZvLzsnQoqL9-37" value="AddSpectrogramToDataset" style="strokeWidth=2;html=1;shape=mxgraph.flowchart.start_1;whiteSpace=wrap;fillColor=#d5e8d4;strokeColor=#82b366;" vertex="1" parent="1">
          <mxGeometry x="424" y="1190" width="166" height="90" as="geometry" />
        </mxCell>
        <mxCell id="BoUPsW9iaZvLzsnQoqL9-38" value="UploadSpectrogramsFromZip" style="strokeWidth=2;html=1;shape=mxgraph.flowchart.start_1;whiteSpace=wrap;fillColor=#d5e8d4;strokeColor=#82b366;" vertex="1" parent="1">
          <mxGeometry x="424" y="1080" width="166" height="90" as="geometry" />
        </mxCell>
        <mxCell id="BoUPsW9iaZvLzsnQoqL9-40" value="UpdateTokens" style="strokeWidth=2;html=1;shape=mxgraph.flowchart.start_1;whiteSpace=wrap;fillColor=#d5e8d4;strokeColor=#82b366;" vertex="1" parent="1">
          <mxGeometry x="701" y="1045" width="126" height="70" as="geometry" />
        </mxCell>
        <mxCell id="BoUPsW9iaZvLzsnQoqL9-43" value="" style="endArrow=classic;html=1;rounded=0;entryX=0.145;entryY=0.855;entryDx=0;entryDy=0;entryPerimeter=0;" edge="1" parent="1" target="BoUPsW9iaZvLzsnQoqL9-28">
          <mxGeometry width="50" height="50" relative="1" as="geometry">
            <mxPoint x="170" y="1060" as="sourcePoint" />
            <mxPoint x="220" y="1010" as="targetPoint" />
          </mxGeometry>
        </mxCell>
        <mxCell id="BoUPsW9iaZvLzsnQoqL9-44" value="" style="endArrow=classic;html=1;rounded=0;entryX=0.145;entryY=0.855;entryDx=0;entryDy=0;entryPerimeter=0;" edge="1" parent="1" target="BoUPsW9iaZvLzsnQoqL9-27">
          <mxGeometry width="50" height="50" relative="1" as="geometry">
            <mxPoint x="178.73" y="1070.15" as="sourcePoint" />
            <mxPoint x="429" y="920.0000000000001" as="targetPoint" />
          </mxGeometry>
        </mxCell>
        <mxCell id="BoUPsW9iaZvLzsnQoqL9-45" value="" style="endArrow=classic;html=1;rounded=0;entryX=0.145;entryY=0.855;entryDx=0;entryDy=0;entryPerimeter=0;" edge="1" parent="1" target="BoUPsW9iaZvLzsnQoqL9-29">
          <mxGeometry width="50" height="50" relative="1" as="geometry">
            <mxPoint x="180" y="1090" as="sourcePoint" />
            <mxPoint x="230" y="1050" as="targetPoint" />
          </mxGeometry>
        </mxCell>
        <mxCell id="BoUPsW9iaZvLzsnQoqL9-46" value="" style="endArrow=classic;html=1;rounded=0;entryX=0.022;entryY=0.669;entryDx=0;entryDy=0;entryPerimeter=0;" edge="1" parent="1" target="BoUPsW9iaZvLzsnQoqL9-34">
          <mxGeometry width="50" height="50" relative="1" as="geometry">
            <mxPoint x="183" y="1105" as="sourcePoint" />
            <mxPoint x="452" y="1010" as="targetPoint" />
          </mxGeometry>
        </mxCell>
        <mxCell id="BoUPsW9iaZvLzsnQoqL9-47" value="" style="endArrow=classic;html=1;rounded=0;entryX=0;entryY=0.5;entryDx=0;entryDy=0;entryPerimeter=0;" edge="1" parent="1" target="BoUPsW9iaZvLzsnQoqL9-35">
          <mxGeometry width="50" height="50" relative="1" as="geometry">
            <mxPoint x="150" y="1150" as="sourcePoint" />
            <mxPoint x="220" y="1080" as="targetPoint" />
          </mxGeometry>
        </mxCell>
        <mxCell id="BoUPsW9iaZvLzsnQoqL9-48" value="" style="endArrow=classic;html=1;rounded=0;entryX=0.016;entryY=0.4;entryDx=0;entryDy=0;entryPerimeter=0;" edge="1" parent="1" target="BoUPsW9iaZvLzsnQoqL9-36">
          <mxGeometry width="50" height="50" relative="1" as="geometry">
            <mxPoint x="160" y="1140" as="sourcePoint" />
            <mxPoint x="210" y="1090" as="targetPoint" />
          </mxGeometry>
        </mxCell>
        <mxCell id="BoUPsW9iaZvLzsnQoqL9-49" value="" style="endArrow=classic;html=1;rounded=0;entryX=0;entryY=0.5;entryDx=0;entryDy=0;entryPerimeter=0;" edge="1" parent="1" target="BoUPsW9iaZvLzsnQoqL9-37">
          <mxGeometry width="50" height="50" relative="1" as="geometry">
            <mxPoint x="170" y="1130" as="sourcePoint" />
            <mxPoint x="190" y="1100" as="targetPoint" />
          </mxGeometry>
        </mxCell>
        <mxCell id="BoUPsW9iaZvLzsnQoqL9-50" value="" style="endArrow=classic;html=1;rounded=0;entryX=0;entryY=0.5;entryDx=0;entryDy=0;entryPerimeter=0;" edge="1" parent="1" target="BoUPsW9iaZvLzsnQoqL9-38">
          <mxGeometry width="50" height="50" relative="1" as="geometry">
            <mxPoint x="180" y="1120" as="sourcePoint" />
            <mxPoint x="200" y="1100" as="targetPoint" />
          </mxGeometry>
        </mxCell>
        <mxCell id="BoUPsW9iaZvLzsnQoqL9-52" value="" style="endArrow=classic;html=1;rounded=0;entryX=1;entryY=0.5;entryDx=0;entryDy=0;entryPerimeter=0;exitX=0;exitY=0.5;exitDx=0;exitDy=0;" edge="1" parent="1" source="BoUPsW9iaZvLzsnQoqL9-33" target="BoUPsW9iaZvLzsnQoqL9-40">
          <mxGeometry width="50" height="50" relative="1" as="geometry">
            <mxPoint x="650" y="1160" as="sourcePoint" />
            <mxPoint x="700" y="1110" as="targetPoint" />
          </mxGeometry>
        </mxCell>
        <mxCell id="BoUPsW9iaZvLzsnQoqL9-55" value="" style="endArrow=classic;html=1;rounded=0;exitX=1;exitY=0.5;exitDx=0;exitDy=0;exitPerimeter=0;entryX=0;entryY=0.5;entryDx=0;entryDy=0;entryPerimeter=0;dashed=1;dashPattern=8 8;" edge="1" parent="1" source="BoUPsW9iaZvLzsnQoqL9-34" target="BoUPsW9iaZvLzsnQoqL9-40">
          <mxGeometry width="50" height="50" relative="1" as="geometry">
            <mxPoint x="650" y="1060" as="sourcePoint" />
            <mxPoint x="700" y="1010" as="targetPoint" />
          </mxGeometry>
        </mxCell>
        <mxCell id="BoUPsW9iaZvLzsnQoqL9-56" value="Include" style="edgeLabel;html=1;align=center;verticalAlign=middle;resizable=0;points=[];" connectable="0" vertex="1" parent="BoUPsW9iaZvLzsnQoqL9-55">
          <mxGeometry x="-0.0762" y="1" relative="1" as="geometry">
            <mxPoint as="offset" />
          </mxGeometry>
        </mxCell>
        <mxCell id="BoUPsW9iaZvLzsnQoqL9-57" value="" style="endArrow=classic;html=1;rounded=0;exitX=1;exitY=0.5;exitDx=0;exitDy=0;exitPerimeter=0;entryX=0.041;entryY=0.639;entryDx=0;entryDy=0;entryPerimeter=0;dashed=1;dashPattern=8 8;" edge="1" parent="1" source="BoUPsW9iaZvLzsnQoqL9-38" target="BoUPsW9iaZvLzsnQoqL9-40">
          <mxGeometry width="50" height="50" relative="1" as="geometry">
            <mxPoint x="610" y="1160" as="sourcePoint" />
            <mxPoint x="756" y="1195" as="targetPoint" />
          </mxGeometry>
        </mxCell>
        <mxCell id="BoUPsW9iaZvLzsnQoqL9-58" value="Include" style="edgeLabel;html=1;align=center;verticalAlign=middle;resizable=0;points=[];" connectable="0" vertex="1" parent="BoUPsW9iaZvLzsnQoqL9-57">
          <mxGeometry x="-0.0762" y="1" relative="1" as="geometry">
            <mxPoint as="offset" />
          </mxGeometry>
        </mxCell>
        <mxCell id="BoUPsW9iaZvLzsnQoqL9-59" value="" style="endArrow=classic;html=1;rounded=0;exitX=1;exitY=0.5;exitDx=0;exitDy=0;exitPerimeter=0;entryX=0.145;entryY=0.855;entryDx=0;entryDy=0;entryPerimeter=0;dashed=1;dashPattern=8 8;" edge="1" parent="1" source="BoUPsW9iaZvLzsnQoqL9-37" target="BoUPsW9iaZvLzsnQoqL9-40">
          <mxGeometry width="50" height="50" relative="1" as="geometry">
            <mxPoint x="595" y="1250" as="sourcePoint" />
            <mxPoint x="741" y="1285" as="targetPoint" />
          </mxGeometry>
        </mxCell>
        <mxCell id="BoUPsW9iaZvLzsnQoqL9-60" value="Include" style="edgeLabel;html=1;align=center;verticalAlign=middle;resizable=0;points=[];" connectable="0" vertex="1" parent="BoUPsW9iaZvLzsnQoqL9-59">
          <mxGeometry x="-0.0762" y="1" relative="1" as="geometry">
            <mxPoint as="offset" />
          </mxGeometry>
        </mxCell>
        <mxCell id="BoUPsW9iaZvLzsnQoqL9-62" value="JWTTokenGeneration" style="strokeWidth=2;html=1;shape=mxgraph.flowchart.start_1;whiteSpace=wrap;fillColor=#d5e8d4;strokeColor=#82b366;" vertex="1" parent="1">
          <mxGeometry x="640" y="500" width="126" height="70" as="geometry" />
        </mxCell>
        <mxCell id="BoUPsW9iaZvLzsnQoqL9-64" value="" style="rounded=0;orthogonalLoop=1;jettySize=auto;html=1;entryX=1;entryY=0.5;entryDx=0;entryDy=0;entryPerimeter=0;" edge="1" parent="1" source="BoUPsW9iaZvLzsnQoqL9-63" target="BoUPsW9iaZvLzsnQoqL9-62">
          <mxGeometry relative="1" as="geometry">
            <mxPoint x="730" y="540" as="targetPoint" />
          </mxGeometry>
        </mxCell>
        <mxCell id="BoUPsW9iaZvLzsnQoqL9-63" value="Sistema" style="html=1;whiteSpace=wrap;fillColor=#fff2cc;strokeColor=#d6b656;" vertex="1" parent="1">
          <mxGeometry x="830" y="510" width="110" height="50" as="geometry" />
        </mxCell>
        <mxCell id="BoUPsW9iaZvLzsnQoqL9-66" value="" style="endArrow=classic;html=1;rounded=0;exitX=0.855;exitY=0.855;exitDx=0;exitDy=0;exitPerimeter=0;entryX=0.145;entryY=0.145;entryDx=0;entryDy=0;entryPerimeter=0;dashed=1;dashPattern=8 8;" edge="1" parent="1" source="BoUPsW9iaZvLzsnQoqL9-13" target="BoUPsW9iaZvLzsnQoqL9-62">
          <mxGeometry width="50" height="50" relative="1" as="geometry">
            <mxPoint x="570" y="460" as="sourcePoint" />
            <mxPoint x="696" y="520" as="targetPoint" />
          </mxGeometry>
        </mxCell>
        <mxCell id="BoUPsW9iaZvLzsnQoqL9-67" value="Include" style="edgeLabel;html=1;align=center;verticalAlign=middle;resizable=0;points=[];" connectable="0" vertex="1" parent="BoUPsW9iaZvLzsnQoqL9-66">
          <mxGeometry x="-0.0762" y="1" relative="1" as="geometry">
            <mxPoint as="offset" />
          </mxGeometry>
        </mxCell>
      </root>
    </mxGraphModel>
  </diagram>
</mxfile>
